<?xml version="1.0" encoding="UTF-8" standalone="no"?>
<!-- Created with Inkscape (http://www.inkscape.org/) -->

<svg
   xmlns:dc="http://purl.org/dc/elements/1.1/"
   xmlns:cc="http://creativecommons.org/ns#"
   xmlns:rdf="http://www.w3.org/1999/02/22-rdf-syntax-ns#"
   xmlns:svg="http://www.w3.org/2000/svg"
   xmlns="http://www.w3.org/2000/svg"
   xmlns:sodipodi="http://sodipodi.sourceforge.net/DTD/sodipodi-0.dtd"
   xmlns:inkscape="http://www.inkscape.org/namespaces/inkscape"
   width="185.15021mm"
   height="19.634081mm"
   viewBox="0 0 185.15021 19.634081"
   version="1.1"
   id="svg5564"
   inkscape:version="0.92.0 r15299"
   sodipodi:docname="warburg pincus.svg">
  <defs
     id="defs5558" />
  <sodipodi:namedview
     id="base"
     pagecolor="#ffffff"
     bordercolor="#666666"
     borderopacity="1.0"
     inkscape:pageopacity="0.0"
     inkscape:pageshadow="2"
     inkscape:zoom="0.35"
     inkscape:cx="348.0004"
     inkscape:cy="35.213997"
     inkscape:document-units="mm"
     inkscape:current-layer="layer1"
     showgrid="false"
     fit-margin-top="0"
     fit-margin-left="0"
     fit-margin-right="0"
     fit-margin-bottom="0"
     inkscape:window-width="1280"
     inkscape:window-height="744"
     inkscape:window-x="-4"
     inkscape:window-y="-4"
     inkscape:window-maximized="1" />
  <metadata
     id="metadata5561">
    <rdf:RDF>
      <cc:Work
         rdf:about="">
        <dc:format>image/svg+xml</dc:format>
        <dc:type
           rdf:resource="http://purl.org/dc/dcmitype/StillImage" />
        <dc:title></dc:title>
      </cc:Work>
    </rdf:RDF>
  </metadata>
  <g
     inkscape:label="Layer 1"
     inkscape:groupmode="layer"
     id="layer1"
     transform="translate(79.601891,-138.51629)">
    <g
       id="g5609"
       transform="translate(0.49999826,-0.49999778)">
      <path
         d="m -66.482081,149.0233 -3.13796,-7.22524 c -0.57079,-1.32962 -0.75988,-1.61502 -2.47226,-1.61502 v -0.66675 c 1.23613,0 2.47226,0.096 3.61385,0.096 0.94968,0 1.90147,-0.096 2.75661,-0.096 v 0.66675 c -0.47625,0 -1.42558,0.0946 -1.42558,0.66428 0,0.1905 0.1905,0.7613 0.28399,1.04669 l 1.71238,4.37268 1.61608,-3.61385 c 0.28539,-0.66534 0.47483,-1.13912 0.47483,-1.61502 0,-0.85478 -0.57079,-0.85478 -1.71097,-0.85478 v -0.66675 c 0.95074,0 1.99637,0.096 2.94711,0.096 0.76129,0 1.61643,-0.096 2.28176,-0.096 v 0.66675 c -1.33103,0 -1.90041,0.66428 -2.37631,1.71097 l -2.66206,5.60882 3.13796,7.22665 4.37162,-11.98069 c 0.4759,-1.14017 0.4759,-1.52011 0.4759,-1.71097 0,-0.47484 -0.2854,-0.76023 -1.99637,-0.85478 v -0.66675 c 1.04563,0 1.99637,0.096 2.94746,0.096 0.66534,0 1.42557,-0.096 2.09232,-0.096 v 0.66675 c -1.23648,0 -1.52294,0.76024 -1.90288,1.80446 l -6.27345,16.16287 h -0.66534 l -3.5179,-7.89094 -3.70875,7.89094 h -0.75988 l -6.46395,-15.87641 c -0.57079,-1.42664 -0.85619,-2.09092 -2.75802,-2.09092 v -0.66675 c 1.14159,0 2.47121,0.096 3.6128,0.096 1.04564,0 2.09092,-0.096 3.04306,-0.096 v 0.66675 c -1.14264,0 -1.61748,0.2854 -1.61748,0.66428 0,0.1905 0,0.47449 0.28539,1.14018 l 5.13433,12.74198 z"
         style="fill:#093a5b;fill-opacity:1;fill-rule:nonzero;stroke:none;stroke-width:0.35277778"
         id="path5206"
         inkscape:connector-curvature="0" />
      <path
         d="m -49.274921,152.16027 h -3.80189 l 1.90042,-5.32483 z m -0.0945,5.60881 h 2.8522 2.947112 v -0.66392 c -1.33209,0 -1.806929,-0.38277 -2.185461,-1.52048 l -3.89925,-11.12449 -1.99531,0.76129 v 0.3803 c 0,0.18944 -0.097,0.56832 -0.286462,0.85478 l -3.707339,9.50807 c -0.19085,0.56832 -0.56974,1.14053 -1.90041,1.14053 v 0.66392 h 2.08985 2.66171 v -0.66392 h -0.283991 c -0.476249,0 -1.332439,-0.0949 -1.332439,-0.76165 0,-0.47484 0.28681,-1.33068 0.38136,-1.71097 l 0.57079,-1.71098 h 4.468639 l 0.949672,2.66312 c 0.190859,0.37995 0.2854,0.56833 0.2854,0.85478 0,0.47484 -0.665339,0.6657 -1.331031,0.6657 h -0.285041 z"
         style="fill:#093a5b;fill-opacity:1;fill-rule:nonzero;stroke:none;stroke-width:0.35277778"
         id="path5210"
         inkscape:connector-curvature="0" />
      <path
         d="m -38.8176,150.92308 v -5.22781 h 1.332089 c 1.996371,0 3.136551,0.76164 3.136551,2.4712 0,1.90289 -1.33068,2.75661 -3.5179,2.75661 z m -2.28177,5.0419 c 0,0.94827 -0.66534,1.14018 -1.900412,1.14018 v 0.66428 h 3.042002 3.137609 v -0.66428 c -1.236139,0 -1.997429,-0.0946 -1.997429,-1.14018 v -4.27919 c 0.2854,0.096 0.57079,0.096 0.95074,0.096 0.190849,0 0.570788,0 0.856189,-0.096 1.331031,2.28176 2.947101,4.94347 3.99274,6.08365 h 1.61607 1.616432 v -0.66428 c -1.710971,-0.38241 -2.376311,-1.04775 -5.134332,-5.89421 1.806932,-0.5708 2.758021,-1.61749 2.758021,-3.04448 0,-2.08985 -1.712391,-3.2325 -3.898201,-3.2325 -0.95073,0 -2.6617,0.096 -3.897839,0.096 -1.045631,0 -1.996371,0 -3.042002,-0.096 v 0.7613 c 1.235072,0 1.900412,0.0949 1.900412,1.14053 z"
         style="fill:#093a5b;fill-opacity:1;fill-rule:nonzero;stroke:none;stroke-width:0.35277778"
         id="path5214"
         inkscape:connector-curvature="0" />
      <path
         d="m -25.031891,151.30404 h 1.521532 c 1.425577,0 3.612798,0.47837 3.612798,3.04447 0,2.37525 -1.80693,2.56575 -3.137959,2.56575 -0.856191,0 -1.996371,0 -1.996371,-0.95073 z m -2.186868,4.65949 c 0,0.95073 -0.760241,1.14018 -1.996371,1.14018 v 0.66534 h 3.422999 3.421951 c 3.04306,0 4.847871,-1.51907 4.847871,-3.51649 0,-2.66065 -1.804811,-3.23145 -4.466521,-3.5179 1.71097,-0.47484 3.231448,-0.94968 3.231448,-2.94605 0,-2.66171 -2.947109,-2.85256 -4.467579,-2.85256 -0.950741,0 -1.80693,0.0949 -2.75767,0.0949 -1.045628,0 -2.091259,0 -3.232499,-0.0949 v 0.76023 c 1.23613,0 1.996371,0.0946 1.996371,1.13912 z m 2.186868,-10.07675 c 0.379939,0 0.760241,-0.096 1.331032,-0.096 0.855839,0 2.661708,0 2.661708,2.18581 0,1.33244 -0.949679,2.47262 -2.85256,2.47262 h -1.14018 z"
         style="fill:#093a5b;fill-opacity:1;fill-rule:nonzero;stroke:none;stroke-width:0.35277778"
         id="path5218"
         inkscape:connector-curvature="0" />
      <path
         d="m -14.193391,146.55114 c 0,-0.85478 -1.046689,-0.85478 -1.808339,-0.85478 v -0.76165 c 0.95215,0.096 1.997778,0.096 2.949929,0.096 0.94827,0 1.90041,0 2.850092,-0.096 v 0.76165 c -0.855131,0 -1.709912,0 -1.709912,0.85478 v 7.13176 c 0,2.37525 1.425569,3.3274 3.4219413,3.3274 3.707339,0 3.707339,-2.85257 3.707339,-5.41832 v -3.13796 c 0,-2.56822 -0.28398,-2.75766 -1.99743,-2.75766 v -0.76165 c 0.85725,0.096 1.71345,0.096 2.566821,0.096 0.76023,0 1.42698,0 2.188279,-0.096 v 0.76165 c -0.85725,0 -1.52259,0.0945 -1.52259,1.80552 v 5.32377 c 0,2.94816 -1.42558,5.22993 -5.323769,5.22993 -3.3274003,0 -5.3223613,-1.23473 -5.3223613,-4.2792 z"
         style="fill:#093a5b;fill-opacity:1;fill-rule:nonzero;stroke:none;stroke-width:0.35277778"
         id="path5222"
         inkscape:connector-curvature="0" />
      <path
         d="m 3.4878703,150.92308 v -5.22781 h 1.23613 c 1.997779,0 3.13902,0.76164 3.13902,2.4712 0,1.90289 -1.237189,2.75661 -3.423,2.75661 z m -2.28036,5.0419 c 0,0.94827 -0.66569101,1.14018 -1.90181901,1.14018 v 0.66428 h 2.94710901 3.13654 v -0.66428 c -1.14018,0 -1.90147,-0.0946 -1.90147,-1.14018 v -4.27919 c 0.19191,0.096 0.57079,0.096 0.85725,0.096 0.284339,0 0.56974,0 0.85513,-0.096 1.33209,2.28176 2.947109,4.94347 3.99133,6.08365 h 1.7134387 1.52047 v -0.66428 c -1.615008,-0.38241 -2.2807,-1.04775 -5.1343187,-5.89421 1.806919,-0.5708 2.8536187,-1.61749 2.8536187,-3.04448 0,-2.08985 -1.8069297,-3.2325 -3.9927397,-3.2325 -0.85725,0 -2.664179,0.096 -3.899249,0.096 -0.951799,0 -1.99637101,0 -2.94710901,-0.096 v 0.7613 c 1.236128,0 1.90181901,0.0949 1.90181901,1.14053 z"
         style="fill:#093a5b;fill-opacity:1;fill-rule:nonzero;stroke:none;stroke-width:0.35277778"
         id="path5226"
         inkscape:connector-curvature="0" />
      <path
         d="m 25.164399,148.45388 h -0.56938 c -0.66569,-1.42663 -1.33209,-2.94711 -3.99274,-2.94711 -2.852558,0 -5.228868,1.70957 -5.228868,5.89422 0,2.4712 1.330669,5.89315 5.514268,5.89315 0.56832,0 1.23366,-0.1905 1.80551,-0.47343 0,-0.19085 0.0935,-1.6189 0.0935,-1.99778 0,-1.42663 -0.28399,-1.90147 -2.08986,-1.90147 v -0.66428 c 1.04564,0.0935 2.18722,0.0935 3.13655,0.0935 0.76165,0 1.71238,0 2.56716,-0.0935 v 0.66428 c -1.23613,0 -1.52012,0.18944 -1.52012,1.04563 v 1.71097 c 0,0.4759 0,0.85478 0.47449,1.04669 v 0.47343 c -1.33068,0.38136 -3.32705,0.85866 -5.41937,0.85866 -4.18324,0 -7.129288,-2.95098 -7.129288,-6.56096 0,-4.18465 3.231089,-6.84636 7.319788,-6.84636 0.66428,0 1.23648,0.0945 2.47262,0.28646 0.28539,0 1.99637,0.28399 2.37631,0.37888 z"
         style="fill:#093a5b;fill-opacity:1;fill-rule:nonzero;stroke:none;stroke-width:0.35277778"
         id="path5230"
         inkscape:connector-curvature="0" />
      <path
         d="m 31.058789,139.51689 c 1.14159,0.0945 2.37878,0.0945 3.51684,0.0945 0.85725,0 1.80693,-0.0945 2.85362,-0.0945 2.7552,0 6.55849,1.14018 6.55849,5.22887 0,3.042 -2.85115,5.22887 -5.60881,5.22887 h -1.33103 v -0.85619 h 1.04563 c 2.18687,0 3.23356,-2.18687 3.23356,-4.08834 0,-3.61139 -2.56716,-4.65702 -4.27919,-4.65702 -0.37994,0 -0.85478,0 -1.14159,0.0935 v 14.73694 c 0,1.80692 0.95074,1.90182 2.37772,1.90182 v 0.66428 h -3.51684 -3.80294 v -0.66428 c 1.42557,0 2.37631,-0.0949 2.37631,-1.90182 V 142.7494 c 0,-1.99637 -0.3803,-2.56716 -2.28177,-2.56716 z"
         style="fill:#093a5b;fill-opacity:1;fill-rule:nonzero;stroke:none;stroke-width:0.35277778"
         id="path5234"
         inkscape:connector-curvature="0" />
      <path
         d="m 46.935169,146.8359 c 0,-1.04563 -0.66534,-1.14018 -1.90041,-1.14018 v -0.76164 c 1.04669,0.096 1.99637,0.096 3.04306,0.096 1.04422,0 2.08985,0 3.04059,-0.096 v 0.76164 c -1.23613,0 -1.90147,0.0945 -1.90147,1.14018 v 9.12954 c 0,0.94826 0.66534,1.14017 1.90147,1.14017 v 0.66428 h -3.04059 -3.04306 v -0.66428 c 1.23507,0 1.90041,-0.19191 1.90041,-1.14017 z"
         style="fill:#093a5b;fill-opacity:1;fill-rule:nonzero;stroke:none;stroke-width:0.35277778"
         id="path5238"
         inkscape:connector-curvature="0" />
      <path
         d="m 55.016919,146.8359 c 0,-1.14018 -1.52047,-1.14018 -2.09232,-1.14018 v -0.76164 c 0.66675,0.096 1.23613,0.096 1.80833,0.096 0.56939,0 1.23473,0 1.80446,-0.096 l 7.98654,9.41387 v -6.84671 c 0,-1.80552 -0.7613,-1.80552 -2.09233,-1.80552 v -0.76164 c 0.7613,0.096 1.71239,0.096 2.56717,0.096 0.76023,0 1.61607,0 2.37631,-0.096 v 0.76164 c -1.23472,0 -1.80552,0 -1.80552,1.33068 v 11.02854 h -0.66569 l -8.84132,-10.2683 v 6.94125 c 0,1.90147 0.2854,2.37772 2.18687,2.37772 v 0.66428 h -2.66171 -2.66311 v -0.66428 c 2.09232,0 2.09232,-1.0481 2.09232,-2.94851 z"
         style="fill:#093a5b;fill-opacity:1;fill-rule:nonzero;stroke:none;stroke-width:0.35277778"
         id="path5242"
         inkscape:connector-curvature="0" />
      <path
         d="m 79.639429,157.19875 c -1.80552,0.57079 -2.47227,0.85619 -4.27814,0.85619 -4.65948,0 -7.31978,-2.85115 -7.31978,-6.65339 0,-4.18465 3.13655,-6.7504 7.12928,-6.7504 2.18828,0 2.56717,0.66534 4.75404,0.76024 l 0.096,2.9471 h -0.57079 c 0,-0.57079 -0.76024,-2.85256 -3.89678,-2.85256 -2.28283,0 -5.13645,1.33103 -5.13645,5.51427 0,2.94711 1.99743,6.27451 5.04049,6.27451 1.80587,0 3.13655,-0.66534 3.99274,-3.13796 l 0.66534,0.0949 z"
         style="fill:#093a5b;fill-opacity:1;fill-rule:nonzero;stroke:none;stroke-width:0.35277778"
         id="path5246"
         inkscape:connector-curvature="0" />
      <path
         d="m 83.061619,146.55114 c 0,-0.85478 -1.14018,-0.85478 -1.80552,-0.85478 v -0.76165 c 0.95074,0.096 1.99602,0.096 2.94711,0.096 0.94932,0 1.90147,0 2.75766,-0.096 v 0.76165 c -0.76129,0 -1.71238,0 -1.71238,0.85478 v 7.13176 c 0,2.37525 1.52188,3.3274 3.51825,3.3274 3.70734,0 3.70734,-2.85257 3.70734,-5.41832 v -3.13796 c 0,-2.56822 -0.28539,-2.75766 -1.99531,-2.75766 v -0.76165 c 0.85478,0.096 1.70992,0.096 2.56576,0.096 0.76023,0 1.42698,0 2.18581,-0.096 v 0.76165 c -0.94933,0 -1.61608,0.0945 -1.61608,1.80552 v 5.32377 c 0,2.94816 -1.42557,5.22993 -5.22887,5.22993 -3.32634,0 -5.32377,-1.23473 -5.32377,-4.2792 z"
         style="fill:#093a5b;fill-opacity:1;fill-rule:nonzero;stroke:none;stroke-width:0.35277778"
         id="path5250"
         inkscape:connector-curvature="0" />
      <path
         d="m 96.277449,154.63166 h 0.66428 c 0.4759,1.80799 1.33209,2.75661 3.232501,2.75661 1.99637,0 2.47227,-1.32962 2.47227,-2.18476 0,-1.04669 -0.57044,-1.71203 -2.37772,-2.66171 -2.851151,-1.42698 -3.611391,-2.47367 -3.611391,-4.47004 0,-1.80552 1.52188,-3.42054 3.802241,-3.42054 0.95074,0 2.18687,0.28399 3.04306,0.28399 l 0.28399,2.56575 h -0.56939 c -0.28539,-1.04422 -0.85725,-2.1844 -2.56716,-2.1844 -1.330681,0 -2.282821,0.94968 -2.282821,2.08986 0,1.23754 0.38241,1.80693 2.948511,3.04306 2.75767,1.33209 3.2325,2.37525 3.2325,4.08869 0,2.09127 -1.90182,3.51685 -4.563531,3.51685 -1.23507,0 -2.28177,-0.18839 -3.3274,-0.66675 z"
         style="fill:#093a5b;fill-opacity:1;fill-rule:nonzero;stroke:none;stroke-width:0.35277778"
         id="path5254"
         inkscape:connector-curvature="0" />
    </g>
  </g>
</svg>
