<?xml version="1.0" encoding="UTF-8"?>
<svg id="SVGRoot" width="500" height="294.32" version="1.1" viewBox="0 0 500.00003 294.3204" xmlns="http://www.w3.org/2000/svg" xmlns:cc="http://creativecommons.org/ns#" xmlns:dc="http://purl.org/dc/elements/1.1/" xmlns:rdf="http://www.w3.org/1999/02/22-rdf-syntax-ns#"><metadata><rdf:RDF><cc:Work rdf:about=""><dc:format>image/svg+xml</dc:format><dc:type rdf:resource="http://purl.org/dc/dcmitype/StillImage"/><dc:title/></cc:Work></rdf:RDF></metadata><g transform="translate(-207.81 -138.78)" fill-rule="evenodd"><path d="m250.48 160.11a21.332 21.332 0 0 1 -21.332 21.332 21.332 21.332 0 0 1 -21.332 -21.332 21.332 21.332 0 0 1 21.332 -21.332 21.332 21.332 0 0 1 21.332 21.332z" fill="#1da3dd" stroke-width="1.0542"/><g fill="#001437" stroke-width="1.0542"><path d="m271.77 223.98a21.332 21.332 0 0 0 -21.332 21.332 21.332 21.332 0 0 0 21.332 21.332 21.332 21.332 0 0 0 21.332 -21.332 21.332 21.332 0 0 0 -21.332 -21.332z"/><path d="m399.71 223.98a63.951 63.951 0 0 0 -63.951 63.949 63.951 63.951 0 0 0 63.951 63.951 63.951 63.951 0 0 0 63.951 -63.951 63.951 63.951 0 0 0 -63.951 -63.949z"/><path d="m442.42 390.43a21.332 21.332 0 0 0 -21.332 21.332 21.332 21.332 0 0 0 21.332 21.332 21.332 21.332 0 0 0 21.332 -21.332 21.332 21.332 0 0 0 -21.332 -21.332z"/></g><g fill="#d94642" stroke-width="1.0542"><path d="m686.48 181.37a21.332 21.332 0 0 0 -21.332 21.332 21.332 21.332 0 0 0 21.332 21.332 21.332 21.332 0 0 0 21.332 -21.332 21.332 21.332 0 0 0 -21.332 -21.332z"/><path d="m613.38 245.36a21.332 21.332 0 0 0 -21.332 21.332 21.332 21.332 0 0 0 21.332 21.332 21.332 21.332 0 0 0 21.332 -21.332 21.332 21.332 0 0 0 -21.332 -21.332z"/><path d="m613.38 288.03a21.332 21.332 0 0 0 -21.332 21.332 21.332 21.332 0 0 0 21.332 21.332 21.332 21.332 0 0 0 21.332 -21.332 21.332 21.332 0 0 0 -21.332 -21.332z"/></g><path d="m293.01 309.91a21.332 21.332 0 0 1 -21.332 21.332 21.332 21.332 0 0 1 -21.332 -21.332 21.332 21.332 0 0 1 21.332 -21.332 21.332 21.332 0 0 1 21.332 21.332z" fill="#1da3dd" stroke-width="1.0542"/><g fill="#001437" stroke-width="1.0542"><path d="m634.72 245.36a21.332 21.332 0 0 1 -21.332 21.332 21.332 21.332 0 0 1 -21.332 -21.332 21.332 21.332 0 0 1 21.332 -21.332 21.332 21.332 0 0 1 21.332 21.332z"/><path d="m634.72 288.03a21.332 21.332 0 0 1 -21.332 21.332 21.332 21.332 0 0 1 -21.332 -21.332 21.332 21.332 0 0 1 21.332 -21.332 21.332 21.332 0 0 1 21.332 21.332z"/><path d="m613.17 309.36a21.332 21.332 0 0 1 -21.332 21.332 21.332 21.332 0 0 1 -21.332 -21.332 21.332 21.332 0 0 1 21.332 -21.332 21.332 21.332 0 0 1 21.332 21.332z"/><path d="m570.72 266.48a21.332 21.332 0 0 1 -21.332 21.332 21.332 21.332 0 0 1 -21.332 -21.332 21.332 21.332 0 0 1 21.332 -21.332 21.332 21.332 0 0 1 21.332 21.332z"/><path d="m548.96 245.15a21.332 21.332 0 0 1 -21.332 21.332 21.332 21.332 0 0 1 -21.332 -21.332 21.332 21.332 0 0 1 21.332 -21.332 21.332 21.332 0 0 1 21.332 21.332z"/></g><path d="m421.09 288.08a21.332 21.332 0 0 1 -21.332 21.332 21.332 21.332 0 0 1 -21.332 -21.332 21.332 21.332 0 0 1 21.332 -21.332 21.332 21.332 0 0 1 21.332 21.332z" fill="#efefef" opacity=".99" stroke-width="1.0542"/><path d="m271.68 309.27a21.332 21.332 0 0 0 -21.332 21.332 21.332 21.332 0 0 0 21.332 21.332 21.332 21.332 0 0 0 21.332 -21.332 21.332 21.332 0 0 0 -21.332 -21.332z" fill="#001437" stroke-width="1.0542"/><path d="m271.68 266.6a21.332 21.332 0 0 0 -21.332 21.332 21.332 21.332 0 0 0 21.332 21.332 21.332 21.332 0 0 0 21.332 -21.332 21.332 21.332 0 0 0 -21.332 -21.332z" fill="#d94642" stroke-width="1.0542"/><path d="m527.63 266.48a21.332 21.332 0 0 0 -21.332 21.332 21.332 21.332 0 0 0 2.8895 10.666 21.332 21.332 0 0 0 -2.8895 10.666 21.332 21.332 0 0 0 2.8853 10.66 21.332 21.332 0 0 0 -2.8853 10.672 21.332 21.332 0 0 0 21.332 21.332 21.332 21.332 0 0 0 21.332 -21.332 21.332 21.332 0 0 0 -2.8832 -10.66 21.332 21.332 0 0 0 2.8832 -10.672 21.332 21.332 0 0 0 -2.8811 -10.664 21.332 21.332 0 0 0 2.8811 -10.668 21.332 21.332 0 0 0 -21.332 -21.332z" fill="#d94642" stroke-width="1.0542"/><path d="m591.84 288.03a21.332 21.332 0 0 1 -21.332 21.332 21.332 21.332 0 0 1 -21.332 -21.332 21.332 21.332 0 0 1 21.332 -21.332 21.332 21.332 0 0 1 21.332 21.332z" fill="#1da3dd" stroke-width="1.0542"/><path d="m634.72 330.91a21.332 21.332 0 0 1 -21.332 21.332 21.332 21.332 0 0 1 -21.332 -21.332 21.332 21.332 0 0 1 21.332 -21.332 21.332 21.332 0 0 1 21.332 21.332z" fill="#1da3dd" stroke-width="1.0542"/></g></svg>
