<svg version="1.1" id="Layer_1" xmlns="http://www.w3.org/2000/svg" xmlns:xlink="http://www.w3.org/1999/xlink" x="0px" y="0px"
	 width="100%" viewBox="0 0 200 200" enable-background="new 0 0 200 200" xml:space="preserve">
<path fill="#FEFEFE" opacity="1.000000" stroke="none" 
	d="
M92.000000,201.000000 
	C61.352196,201.000000 31.204393,201.000000 1.028295,201.000000 
	C1.028295,134.393890 1.028295,67.787773 1.028295,1.090827 
	C67.564316,1.090827 134.128799,1.090827 200.846649,1.090827 
	C200.846649,67.666397 200.846649,134.333160 200.846649,201.000000 
	C164.788071,201.000000 128.644028,201.000000 92.000000,201.000000 
M145.131149,59.338837 
	C110.963379,40.593102 72.168983,57.454018 62.661797,95.038315 
	C62.198280,96.870720 60.254150,98.887428 58.480843,99.741623 
	C43.752903,106.836052 33.585247,117.950203 28.653088,133.514099 
	C26.995337,138.745285 26.484673,144.339966 25.446009,149.787994 
	C34.303707,149.787994 42.030792,149.787994 49.703320,149.787994 
	C51.207966,132.353363 62.959515,119.906128 78.523849,118.893417 
	C96.987953,117.692024 108.535378,127.975563 113.233009,149.817871 
	C120.965080,149.817871 128.695190,149.817871 136.473953,149.817871 
	C136.251877,135.552704 131.454330,123.450493 122.218201,113.124214 
	C113.046425,102.869873 101.259453,97.325043 87.767754,95.065254 
	C93.531830,81.765816 106.646248,73.827934 119.505615,75.397339 
	C135.831085,77.389755 145.045914,87.200829 148.655151,106.625336 
	C156.333267,106.625336 164.054688,106.625336 171.757706,106.625336 
	C172.767578,88.974342 162.667313,70.911575 145.131149,59.338837 
M163.059174,118.950134 
	C161.565186,118.921684 160.063171,118.779671 158.578598,118.884544 
	C152.312195,119.327202 147.934860,122.768906 145.566452,128.301193 
	C143.196945,133.836075 143.782761,139.392548 147.728394,144.228226 
	C152.238037,149.755157 159.129333,151.624374 165.686493,149.233536 
	C171.972549,146.941544 175.955856,141.338226 175.973969,134.762177 
	C175.994949,127.141396 171.926788,121.840019 163.059174,118.950134 
z"/>
<path fill="#191F35" opacity="1.000000" stroke="none" 
	d="
M145.431198,59.546719 
	C162.667313,70.911575 172.767578,88.974342 171.757706,106.625336 
	C164.054688,106.625336 156.333267,106.625336 148.655151,106.625336 
	C145.045914,87.200829 135.831085,77.389755 119.505615,75.397339 
	C106.646248,73.827934 93.531830,81.765816 87.767754,95.065254 
	C101.259453,97.325043 113.046425,102.869873 122.218201,113.124214 
	C131.454330,123.450493 136.251877,135.552704 136.473953,149.817871 
	C128.695190,149.817871 120.965080,149.817871 113.233009,149.817871 
	C108.535378,127.975563 96.987953,117.692024 78.523849,118.893417 
	C62.959515,119.906128 51.207966,132.353363 49.703320,149.787994 
	C42.030792,149.787994 34.303707,149.787994 25.446009,149.787994 
	C26.484673,144.339966 26.995337,138.745285 28.653088,133.514099 
	C33.585247,117.950203 43.752903,106.836052 58.480843,99.741623 
	C60.254150,98.887428 62.198280,96.870720 62.661797,95.038315 
	C72.168983,57.454018 110.963379,40.593102 145.431198,59.546719 
z"/>
<path fill="#9AC56D" opacity="1.000000" stroke="none" 
	d="
M163.480377,118.990166 
	C171.926788,121.840019 175.994949,127.141396 175.973969,134.762177 
	C175.955856,141.338226 171.972549,146.941544 165.686493,149.233536 
	C159.129333,151.624374 152.238037,149.755157 147.728394,144.228226 
	C143.782761,139.392548 143.196945,133.836075 145.566452,128.301193 
	C147.934860,122.768906 152.312195,119.327202 158.578598,118.884544 
	C160.063171,118.779671 161.565186,118.921684 163.480377,118.990166 
z"/>
</svg>