<?xml version="1.0" encoding="UTF-8"?>
<svg width="500" height="323.16" version="1.1" viewBox="0 0 500 323.15802" xmlns="http://www.w3.org/2000/svg" xmlns:cc="http://creativecommons.org/ns#" xmlns:dc="http://purl.org/dc/elements/1.1/" xmlns:rdf="http://www.w3.org/1999/02/22-rdf-syntax-ns#"><metadata><rdf:RDF><cc:Work rdf:about=""><dc:format>image/svg+xml</dc:format><dc:type rdf:resource="http://purl.org/dc/dcmitype/StillImage"/><dc:title/></cc:Work></rdf:RDF></metadata><path class="drawnline" d="m226.62 121.16v-111.47l-123.25 71.832v232.07l123.25-70.107v-49.71" fill="none" stroke="#32a1da" stroke-miterlimit="10" stroke-width="11.133"/><g fill="#144765" stroke-width="2.7833"><path d="m125.5 131.02v53.884h9.7144v-20.794h17.7c4.9543 0 8.9099-3.978 8.9099-8.9044v-15.281c0-4.9544-3.9834-8.9044-8.9099-8.9044zm9.7144 8.8773h14.721c1.1969 0 2.1746 0.89 2.1746 2.1147v11.052c0 1.2247-0.9498 2.1147-2.1746 2.1147h-14.72z"/><path d="m184.86 131.02-18.206 53.857h9.8014l3.7293-11.721h18.2l3.8706 11.721h9.796l-18.2-53.857zm4.4523 12.938 6.2354 20.543h-12.444z"/><path d="m267.45 131.02h38.967v8.9066h-14.64v44.951h-9.7137v-44.978h-14.64v-8.8787z"/><path d="m356.26 184.88h-9.3797l-20.374-34.847v34.847h-9.3797v-53.857h9.3797l20.374 35.014v-35.014h9.3797z"/><path d="m370.58 131.02h32.677v8.9066h-22.963v13.332h20.931v8.9066h-20.931v13.833h22.963v8.9066h-32.677z"/><path d="m-0.001088 131.41v53.83h27.024c4.7596 0 8.5729-3.7821 8.5729-8.4859v-13.585c0-3.1451-2.4478-5.3993-4.7023-5.8167 2.505-0.80715 4.2891-3.4768 4.2891-5.8982v-11.552c0-4.676-3.8134-8.4913-8.5729-8.4913zm9.7144 8.7684h13.58c1.1968 0 2.1744 0.89001 2.1744 2.1147v8.9099c0 1.1412-0.81041 2.0311-1.9516 2.1147v-0.0273h-13.802zm0 21.848h13.998c1.1968 0 2.169 0.89 2.169 2.1147v10.187c0 1.2247-0.94437 2.1147-2.169 2.1147h-13.998z"/><path d="m221.6 130.99v53.863h9.9644v-20.794h6.2896l14.085 20.794h10.688l-13.998-21.017c5.0378 0 8.9316-4.4516 8.9316-8.6543v-15.281c0-4.9266-3.9501-8.9099-8.9044-8.9099zm9.9644 8.937h14.085c1.2246 0 2.169 0.89001 2.169 2.1147v11.052h0.028c0 1.2247-0.97223 2.1147-2.169 2.1147h-14.112z"/><path d="m416.02 130.99v53.863h9.9644v-20.794h6.295l14.08 20.794h10.688l-13.998-21.017c5.0378 0 8.937-4.4516 8.937-8.6543v-15.281c0-4.9266-3.9556-8.9099-8.9099-8.9099zm9.9971 8.937h14.08c1.2247 0 2.1744 0.89001 2.1744 2.1147v11.052c0 1.2247-0.97763 2.1147-2.1744 2.1147h-14.08z"/><path d="m77.151 131.41h-22.713c-2.8668 0-5.2048 2.338-5.2048 5.2048v43.477c0 2.8668 2.338 5.2048 5.2048 5.2048h22.711c3.2843 0 5.9564-2.672 5.9564-5.9564v-7.5427h-9.4354v2.2546c0 1.2247-0.86283 2.338-2.0597 2.338h-12.636v-36.1h13.054c1.1412 0 2.0597 0.77934 2.0597 1.9761v2.6163h9.0457v-7.5427a5.9814 5.9814 0 0 0 -5.9841 -5.9286z"/><path d="m494.05 131.02h-20.263c-4.9266 0-8.823 3.9523-8.823 8.9066v11.078c0 4.9266 3.8688 7.2923 8.6561 8.7396 5.984 1.7813 8.3221 2.4216 14.473 4.1193 1.2803 0.334 2.171 1.0577 2.171 2.2546v7.7654c0 1.2247-0.97415 2.1153-2.171 2.1153h-10.827c-1.336 0-2.3937-0.97415-2.3937-2.3101v-1.2525h-10.048v6.4574c0 3.2843 2.672 5.9564 5.9564 5.9564h20.401c4.9266 0 8.8231-3.9524 8.8231-8.9066v-12.052c0-4.9266-3.8131-7.4314-8.4056-8.7396-5.9007-1.6978-9.9364-2.7556-14.724-4.1194-1.2247-0.334-2.171-1.1412-2.171-2.338v-6.7077c0-1.2247 0.97415-2.1153 2.171-2.1153h10.744c1.2246 0 2.171 0.89065 2.171 2.1153v1.4473h10.215v-6.485c0-3.2843-2.672-5.9286-5.9564-5.9286z"/></g></svg>
